<?xml version="1.0" encoding="utf-8"?>
<!-- Generator: Adobe Adobe Illustrator 24.2.0, SVG Export Plug-In . SVG Version: 6.00 Build 0)  -->
<svg version="1.1" id="Layer_1" xmlns="http://www.w3.org/2000/svg" xmlns:xlink="http://www.w3.org/1999/xlink" x="0px" y="0px"
	 viewBox="0 0 560 288" style="enable-background:new 0 0 560 288;" xml:space="preserve">
<style type="text/css">
	.st0{fill:#FFFFFF;stroke:#000000;stroke-width:9;stroke-miterlimit:10;}
	.st1{stroke:#000000;stroke-miterlimit:10;}
	.st2{fill:none;stroke:#000000;stroke-width:12;stroke-miterlimit:10;}
</style>
<path class="st0" d="M275.06,87.04"/>
<path class="st0" d="M561.44,118.31"/>
<g>
	<path class="st1" d="M0.85,121.05h9.35v37.83h35.53v-37.83h9.35v91.56h-9.35v-42.82H10.2v42.82H0.85V121.05z"/>
	<path class="st1" d="M125.67,134.14c4.53,8.1,6.79,18.47,6.79,31.1c0,13.67-2.59,25.04-7.77,34.09
		c-6.08,10.64-14.74,15.96-26,15.96c-10.51,0-18.77-4.65-24.79-13.96c-5.36-8.98-8.05-20.32-8.05-34.03
		c0-12.38,2.29-22.98,6.88-31.79c5.89-11.3,14.6-16.95,26.14-16.95C110.95,118.56,119.88,123.75,125.67,134.14z M117.51,192.45
		c3.64-7.83,5.46-16.84,5.46-27.02c0-10.76-2.1-19.42-6.3-25.99c-4.2-6.56-9.95-9.85-17.23-9.85c-7.07,0-12.84,3.25-17.3,9.75
		c-4.46,6.5-6.7,16.09-6.7,28.77c0,10.14,1.91,18.69,5.74,25.65c3.83,6.96,10.04,10.44,18.63,10.44
		C107.97,204.2,113.87,200.28,117.51,192.45z"/>
	<path class="st1" d="M193.2,121.05v10.91h-23.02v80.65h-9.39v-80.65h-23.02v-10.91H193.2z"/>
	<path class="st1" d="M202.55,121.05h49.81v11.22h-40.79v27.8h37.72v10.6h-37.72v31.04h41.48v10.91h-50.51V121.05z"/>
	<path class="st1" d="M265.2,121.05h9.26v80.65h34.6v10.91H265.2V121.05z"/>
	<path class="st1" d="M397.42,134.14c4.53,8.1,6.79,18.47,6.79,31.1c0,13.67-2.59,25.04-7.77,34.09
		c-6.08,10.64-14.74,15.96-26,15.96c-10.51,0-18.77-4.65-24.79-13.96c-5.36-8.98-8.05-20.32-8.05-34.03
		c0-12.38,2.29-22.98,6.88-31.79c5.89-11.3,14.6-16.95,26.14-16.95C382.69,118.56,391.62,123.75,397.42,134.14z M389.25,192.45
		c3.64-7.83,5.46-16.84,5.46-27.02c0-10.76-2.1-19.42-6.3-25.99c-4.2-6.56-9.95-9.85-17.23-9.85c-7.07,0-12.84,3.25-17.3,9.75
		c-4.46,6.5-6.7,16.09-6.7,28.77c0,10.14,1.91,18.69,5.74,25.65c3.83,6.96,10.04,10.44,18.63,10.44
		C379.71,204.2,385.61,200.28,389.25,192.45z"/>
	<path class="st1" d="M416.34,121.05h31.62c5.21,0,9.5,1.02,12.88,3.05c6.42,3.91,9.63,11.12,9.63,21.63
		c0,5.48-0.85,9.97-2.54,13.46c-1.69,3.49-4.05,6.29-7.09,8.41c2.67,1.46,4.67,3.37,6.02,5.73c1.35,2.37,2.1,6.21,2.26,11.53
		l0.33,12.28c0.09,3.49,0.31,6.09,0.65,7.79c0.56,2.91,1.55,4.78,2.98,5.61v2.06h-11.35c-0.31-0.79-0.56-1.81-0.74-3.05
		c-0.19-1.25-0.34-3.66-0.47-7.23l-0.56-15.27c-0.22-5.98-1.88-9.99-4.98-12.03c-1.77-1.12-4.54-1.68-8.32-1.68H425.6v39.27h-9.25
		V121.05z M446.99,163c4.34,0,7.77-1.16,10.3-3.49c2.53-2.33,3.79-6.52,3.79-12.59c0-6.52-1.77-10.97-5.3-13.34
		c-1.89-1.25-4.42-1.87-7.58-1.87h-22.6V163H446.99z"/>
	<path class="st1" d="M532.05,121.05v10.91h-23.02v80.65h-9.39v-80.65h-23.02v-10.91H532.05z"/>
</g>
<polyline class="st2" points="293.52,54.42 382.91,12.74 382.91,12.74 542.8,85.61 "/>
<polyline class="st2" points="279.16,83.86 382.62,35.62 382.62,35.62 382.62,35.62 557.16,115.09 "/>
<g>
	<path class="st1" d="M35.72,245.12l-10.45,7.6l4.02,12.34l-10.47-7.62l-10.49,7.62l4.02-12.34l-10.43-7.6h12.89l4.02-12.27l4,12.27
		H35.72z"/>
	<path class="st1" d="M81.35,245.12l-10.45,7.6l4.02,12.34l-10.47-7.62l-10.49,7.62l4.02-12.34l-10.43-7.6h12.89l4.02-12.27l4,12.27
		H81.35z"/>
	<path class="st1" d="M126.98,245.12l-10.45,7.6l4.02,12.34l-10.47-7.62l-10.49,7.62l4.02-12.34l-10.43-7.6h12.89l4.02-12.27
		l4,12.27H126.98z"/>
</g>
<g>
	<polyline class="st2" points="133.55,250.01 528.55,250.01 528.55,103.01 	"/>
</g>
</svg>
